<svg width="384" height="403" viewBox="0 0 384 403" fill="none" xmlns="http://www.w3.org/2000/svg">
<path opacity="0.5" d="M225.44 403C179.1 403 138.813 394.086 104.579 376.258C70.7632 358.43 44.8793 333.968 26.9276 302.872C8.97586 271.362 0 236.12 0 197.147C0 159.417 10.0196 125.627 30.0587 95.7747C50.0978 65.5082 77.4429 42.0828 112.094 25.4985C146.745 8.49949 185.362 0 227.945 0C247.567 0 267.606 1.86574 288.063 5.59722C308.519 8.9141 324.592 13.0602 336.282 18.0355C339.622 19.6939 341.709 21.3524 342.544 23.0108C343.379 24.6692 344.005 27.7788 344.423 32.3395L349.432 113.81C349.432 115.469 348.389 116.505 346.301 116.92C344.214 117.334 342.753 116.92 341.918 115.676C327.306 84.1656 308.102 59.7037 284.305 42.2901C260.509 24.462 232.955 15.5479 201.644 15.5479C161.148 15.5479 129.628 29.8519 107.084 58.4599C84.5401 86.6533 73.2681 125.212 73.2681 174.136C73.2681 216.841 80.7828 254.57 95.8121 287.324C110.841 320.078 131.298 345.369 157.182 363.198C183.483 381.026 213.125 389.94 246.106 389.94C261.135 389.94 272.616 387.867 280.548 383.721C288.48 379.16 293.907 371.904 296.83 361.954C300.17 351.588 301.84 336.663 301.84 317.176C301.84 296.86 299.961 282.141 296.204 273.02C292.446 263.899 285.558 257.887 275.538 254.985C265.519 252.082 249.446 250.631 227.319 250.631C224.814 250.631 223.562 248.973 223.562 245.656C223.562 244.412 223.77 243.376 224.188 242.546C225.023 241.302 225.858 240.681 226.693 240.681C261.344 242.754 290.15 243.79 313.112 243.79C334.821 243.79 357.365 243.168 380.744 241.924C382.414 241.924 383.457 243.376 383.875 246.278C384.292 249.18 383.666 250.631 381.996 250.631C375.316 250.217 371.142 251.875 369.472 255.606C367.802 259.338 366.967 267.837 366.967 281.105V323.395C366.967 342.052 367.593 355.113 368.845 362.576C370.098 370.039 370.724 375.221 370.724 378.123C370.724 380.611 370.307 382.27 369.472 383.099C369.054 383.928 367.593 384.757 365.088 385.586C311.65 397.195 265.101 403 225.44 403Z" fill="#FAFAFA"/>
</svg>
